<svg xmlns="http://www.w3.org/2000/svg" width="276" height="350" viewBox="0 0 276 350"><rect width="100%" height="100%" fill="#DDDDDD"/><path fill="#999999" d="M55.01 158.735h3.87v5.19l-.4 2.8q-.14.8-.46 1.22-.33.42-1.08.42-.67 0-1.03-.42t-.5-1.22l-.4-2.8v-5.19Zm26.32 0h4.26v26.03h-2.48q-.58 0-.96-.19-.39-.19-.75-.64l-13.59-17.35q.11 1.19.11 2.2v15.98h-4.27v-26.03h2.54q.3 0 .53.03.22.03.4.11.17.08.33.23.16.15.36.41l13.64 17.42q-.05-.63-.09-1.24-.03-.61-.03-1.14v-15.82Zm17.53 7.27q2.05 0 3.73.67 1.69.67 2.88 1.89 1.2 1.22 1.85 2.99.65 1.76.65 3.94 0 2.2-.65 3.96-.65 1.76-1.85 3.01-1.19 1.24-2.88 1.9-1.68.67-3.73.67-2.07 0-3.76-.67-1.7-.66-2.89-1.9-1.2-1.25-1.86-3.01-.65-1.76-.65-3.96 0-2.18.65-3.94.66-1.77 1.86-2.99 1.19-1.22 2.89-1.89 1.69-.67 3.76-.67Zm0 15.61q2.3 0 3.41-1.55 1.11-1.55 1.11-4.53 0-2.99-1.11-4.56-1.11-1.56-3.41-1.56-2.34 0-3.47 1.57-1.12 1.58-1.12 4.55 0 2.97 1.12 4.52 1.13 1.56 3.47 1.56Zm26.82-22.88v26.03h-4.86v-26.03h4.86Zm9.56 26.03h-4.45v-18.47h2.72q.86 0 1.13.81l.29 1.37q.49-.54 1.02-.99.53-.45 1.13-.77.6-.33 1.3-.52.69-.19 1.52-.19 1.74 0 2.87.95 1.12.94 1.68 2.51.43-.92 1.08-1.58.65-.65 1.42-1.07.78-.41 1.65-.61.87-.2 1.76-.2 1.53 0 2.71.47 1.19.47 2 1.37.81.9 1.24 2.2.42 1.29.42 2.97v11.75h-4.45v-11.75q0-1.77-.77-2.66-.78-.89-2.27-.89-.68 0-1.27.23-.58.24-1.02.68-.45.44-.7 1.11-.25.66-.25 1.53v11.75h-4.46v-11.75q0-1.86-.75-2.7-.75-.85-2.19-.85-.97 0-1.81.48-.83.47-1.55 1.3v13.52Zm35.46-4.77v-3.11q-1.93.09-3.24.33-1.32.24-2.11.62-.79.38-1.13.88-.35.51-.35 1.1 0 1.17.7 1.67.69.51 1.81.51 1.36 0 2.36-.5 1-.49 1.96-1.5Zm-9.4-9.7-.79-1.42q3.18-2.92 7.67-2.92 1.62 0 2.89.53 1.28.53 2.16 1.48.89.94 1.35 2.26.45 1.31.45 2.88v11.66h-2.01q-.63 0-.97-.19-.35-.19-.54-.76l-.4-1.34q-.7.63-1.37 1.11-.66.48-1.38.8-.72.33-1.54.5-.82.17-1.81.17-1.17 0-2.16-.32-.99-.31-1.71-.94-.72-.63-1.12-1.57-.39-.93-.39-2.18 0-.7.23-1.39t.77-1.32q.53-.63 1.37-1.19.85-.56 2.08-.97 1.23-.42 2.87-.68 1.64-.26 3.75-.31v-1.08q0-1.86-.8-2.75-.79-.89-2.28-.89-1.08 0-1.79.25t-1.25.57q-.54.31-.98.57-.45.25-.99.25-.46 0-.79-.25-.32-.24-.52-.56Zm24.66 4.79q.83 0 1.44-.23.61-.22 1.02-.62.4-.4.61-.95.21-.56.21-1.23 0-1.37-.82-2.17-.82-.8-2.46-.8-1.64 0-2.46.8-.82.8-.82 2.17 0 .65.21 1.21.21.56.61.96.41.41 1.03.63.62.23 1.43.23Zm5.02 10.51q0-.54-.32-.88-.33-.35-.88-.54-.56-.18-1.31-.27-.75-.09-1.58-.14-.84-.04-1.73-.08t-1.74-.14q-.74.41-1.19.97-.46.56-.46 1.29 0 .49.24.91.24.43.77.73.53.31 1.38.48.85.17 2.07.17 1.24 0 2.14-.19.9-.19 1.49-.52.58-.33.85-.79t.27-1Zm-.88-18.67h5.31v1.66q0 .79-.95.97l-1.66.31q.38.95.38 2.08 0 1.37-.55 2.48-.55 1.11-1.52 1.88-.97.77-2.3 1.2-1.32.42-2.85.42-.54 0-1.04-.05-.51-.06-.99-.15-.87.52-.87 1.17 0 .56.52.82.51.26 1.35.37.85.11 1.93.13 1.08.03 2.21.12 1.14.09 2.22.32 1.08.22 1.92.71.85.48 1.36 1.32.52.84.52 2.15 0 1.23-.61 2.38-.6 1.15-1.74 2.05-1.15.9-2.81 1.45-1.67.55-3.79.55-2.09 0-3.64-.41-1.54-.4-2.57-1.08-1.03-.67-1.53-1.55-.5-.89-.5-1.84 0-1.3.78-2.17.78-.87 2.15-1.39-.74-.38-1.17-1.01-.43-.63-.43-1.66 0-.41.15-.85t.45-.88q.3-.43.75-.82.45-.38 1.06-.69-1.4-.75-2.2-2.01-.81-1.26-.81-2.96 0-1.36.55-2.47t1.53-1.89q.98-.78 2.33-1.2 1.34-.41 2.92-.41 1.19 0 2.23.24 1.05.24 1.91.71Zm11.63 6.48h8.39q0-.86-.25-1.63-.24-.76-.73-1.34-.48-.57-1.23-.91-.75-.33-1.74-.33-1.92 0-3.03 1.1-1.11 1.1-1.41 3.11Zm11.34 2.68h-11.43q.11 1.43.5 2.46.4 1.04 1.05 1.71.64.68 1.54 1.01.89.33 1.97.33t1.86-.25q.78-.25 1.37-.56.58-.3 1.02-.56.44-.25.86-.25.56 0 .83.42l1.27 1.62q-.73.86-1.65 1.44-.92.59-1.92.94-1 .35-2.03.5-1.04.14-2.01.14-1.93 0-3.58-.64-1.66-.64-2.88-1.89-1.23-1.25-1.93-3.1-.7-1.84-.7-4.27 0-1.89.61-3.56.61-1.66 1.76-2.89 1.14-1.24 2.79-1.96 1.64-.72 3.71-.72 1.75 0 3.23.56 1.47.56 2.53 1.63 1.07 1.07 1.67 2.63.6 1.56.6 3.55 0 1.01-.21 1.36-.22.35-.83.35Zm4.05-17.35h3.87v5.19l-.4 2.8q-.14.8-.47 1.22-.32.42-1.08.42-.66 0-1.02-.42t-.51-1.22l-.39-2.8v-5.19Z"/></svg>